<svg width="30" height="30" viewBox="0 0 30 30" fill="none" xmlns="http://www.w3.org/2000/svg">
<path d="M11.25 20C13.4412 20 15.4394 19.1887 16.9744 17.8581L25 25.8838L25.8838 25L17.8581 16.9744C19.1887 15.4394 20 13.4412 20 11.25C20 6.4175 16.0825 2.5 11.25 2.5C6.4175 2.5 2.5 6.4175 2.5 11.25C2.5 16.0825 6.4175 20 11.25 20ZM11.25 3.75C15.3856 3.75 18.75 7.11438 18.75 11.25C18.75 15.3856 15.3856 18.75 11.25 18.75C7.11438 18.75 3.75 15.3856 3.75 11.25C3.75 7.11438 7.11438 3.75 11.25 3.75Z" fill="black"/>
</svg>
