<svg width="30" height="30" viewBox="0 0 30 30" fill="none" xmlns="http://www.w3.org/2000/svg">
<path d="M18.1806 15.4669C20.375 14.3181 21.875 12.0238 21.875 9.375C21.875 5.57812 18.7969 2.5 15 2.5C11.2031 2.5 8.125 5.57812 8.125 9.375C8.125 12.0238 9.625 14.3181 11.8194 15.4669C6.80625 16.9312 3.125 21.7556 3.125 27.5H26.875C26.875 21.7556 23.1938 16.9312 18.1806 15.4669ZM9.375 9.375C9.375 6.27313 11.8981 3.75 15 3.75C18.1019 3.75 20.625 6.27313 20.625 9.375C20.625 12.4769 18.1019 15 15 15C11.8981 15 9.375 12.4769 9.375 9.375ZM15 16.25C20.4594 16.25 24.9706 20.6331 25.56 26.25H4.44C5.02938 20.6331 9.54063 16.25 15 16.25Z" fill="white"/>
</svg>
