<svg width="30" height="30" viewBox="0 0 30 30" fill="none" xmlns="http://www.w3.org/2000/svg">
<path d="M15 2.5C8.09625 2.5 2.5 8.09625 2.5 15C2.5 21.9037 8.09625 27.5 15 27.5C21.9037 27.5 27.5 21.9037 27.5 15C27.5 8.09625 21.9037 2.5 15 2.5ZM15 26.25C8.79688 26.25 3.75 21.2031 3.75 15C3.75 8.79688 8.79688 3.75 15 3.75C21.2031 3.75 26.25 8.79688 26.25 15C26.25 21.2031 21.2031 26.25 15 26.25Z" fill="white"/>
<path d="M15.625 9.375H14.375V15.625H20.625V14.375H15.625V9.375Z" fill="white"/>
</svg>
