<?xml version="1.0" encoding="utf-8"?>
<!-- Generator: Adobe Illustrator 24.0.1, SVG Export Plug-In . SVG Version: 6.00 Build 0)  -->
<svg version="1.1" id="Layer_2" xmlns="http://www.w3.org/2000/svg" xmlns:xlink="http://www.w3.org/1999/xlink" x="0px" y="0px"
	 viewBox="0 0 24 24" style="enable-background:new 0 0 24 24;" xml:space="preserve">
<style type="text/css">
	.st0{fill:#EF4C4A;}
	.st1{fill:#667085;}
</style>
<path class="st0" d="M12,6.9c0,0,9.3,1.3,9.3,1.5c0,0,0.1,0.3,0,0.9c-0.1,1.1-0.8,3-3.4,5.2L12,20.1l-8.3-7.9c0,0-3.4-5.8,2.8-8.1
	c0,0,3.4-0.8,5.5,2.1l0.5-0.5c0,0,2.4-2.6,4.5-1.5c0,0,3.7,0.1,4.3,3c0.6,3,0,0.4,0,0.4l0.3,1.8"/>
<g id="Layer_1">
	<path class="st1" d="M4.2,13.5L12,21l7.8-7.5c1.4-1,2.2-2.6,2.2-4.4c0-3.1-2.5-5.6-5.6-5.6c-1.8,0-3.4,0.9-4.4,2.2
		c-1-1.4-2.6-2.2-4.4-2.2C4.5,3.5,2,6,2,9.1C2,10.9,2.9,12.5,4.2,13.5z M7.6,4.5c1.4,0,2.8,0.7,3.6,1.8L12,7.4l0.8-1.1
		c0.9-1.1,2.2-1.8,3.6-1.8c2.5,0,4.6,2,4.6,4.6c0,1.4-0.7,2.8-1.8,3.6l0,0l0,0L12,19.6l-7.1-6.8l0,0l0,0C3.7,11.8,3,10.5,3,9.1
		C3,6.5,5,4.5,7.6,4.5z"/>
</g>
</svg>
