<svg width="30" height="30" viewBox="0 0 30 30" fill="none" xmlns="http://www.w3.org/2000/svg">
<path d="M2.5 25C2.5 26.375 3.625 27.5 5 27.5H25C26.375 27.5 27.5 26.375 27.5 25V8.75H21.7556C21.1656 5.555 18.3638 3.125 15 3.125C11.6362 3.125 8.83437 5.555 8.24438 8.75H2.5V25ZM15 4.375C17.6719 4.375 19.9094 6.24875 20.48 8.75H9.52C10.0906 6.24875 12.3281 4.375 15 4.375ZM8.125 10V13.75H9.375V10H20.625V13.75H21.875V10H26.25V25C26.25 25.6894 25.6894 26.25 25 26.25H5C4.31062 26.25 3.75 25.6894 3.75 25V10H8.125Z" fill="black"/>
</svg>
