<svg width="30" height="30" viewBox="0 0 30 30" fill="none" xmlns="http://www.w3.org/2000/svg">
<path d="M5.2775 16.875L15 26.25L24.7225 16.875C26.41 15.6044 27.5 13.59 27.5 11.3194C27.5 7.48625 24.3888 4.375 20.5556 4.375C18.285 4.375 16.2638 5.4725 15 7.16C13.7362 5.4725 11.715 4.375 9.44438 4.375C5.61125 4.375 2.5 7.48625 2.5 11.3194C2.5 13.59 3.59 15.6044 5.2775 16.875ZM9.44438 5.625C11.2256 5.625 12.9281 6.47875 13.9994 7.90875L15 9.245L16.0006 7.90937C17.0719 6.47875 18.7744 5.625 20.5556 5.625C23.6956 5.625 26.25 8.17937 26.25 11.3194C26.25 13.1244 25.4194 14.7856 23.97 15.8763L23.9094 15.9219L23.8544 15.975L15 24.5138L6.14563 15.975L6.09062 15.9219L6.03 15.8763C4.58125 14.7856 3.75 13.1244 3.75 11.3194C3.75 8.17937 6.30437 5.625 9.44438 5.625Z" fill="white"/>
</svg>
