<svg width="30" height="30" viewBox="0 0 30 30" fill="none" xmlns="http://www.w3.org/2000/svg">
<g clip-path="url(#clip0_1_301)">
<path d="M15 18.75C17.0712 18.75 18.75 17.0712 18.75 15C18.75 12.9288 17.0712 11.25 15 11.25C12.9288 11.25 11.25 12.9288 11.25 15C11.25 17.0712 12.9288 18.75 15 18.75ZM15 12.5C16.3787 12.5 17.5 13.6212 17.5 15C17.5 16.3787 16.3787 17.5 15 17.5C13.6212 17.5 12.5 16.3787 12.5 15C12.5 13.6212 13.6212 12.5 15 12.5Z" fill="black"/>
<path d="M5.44125 23.1419C6.91813 22.7763 8.44 22.365 9.53188 22.365C9.95875 22.365 10.32 22.4281 10.5869 22.5806C11.5081 23.1088 12.0356 25.2481 12.615 27.2694C13.3881 27.4163 14.1838 27.5 15 27.5C15.8162 27.5 16.6119 27.4163 17.385 27.27C17.9637 25.2488 18.4919 23.1094 19.4125 22.5819C19.6794 22.4288 20.0406 22.3662 20.4675 22.3662C21.5594 22.3662 23.0819 22.7775 24.5581 23.1431C25.5612 21.9881 26.3488 20.6494 26.8744 19.185C25.4094 17.6812 23.8294 16.1281 23.8294 15.0013C23.8294 13.8738 25.4094 12.3212 26.8744 10.8175C26.3488 9.35313 25.5612 8.01438 24.5581 6.85938C23.0812 7.225 21.5594 7.63625 20.4675 7.63625C20.0406 7.63625 19.6794 7.57312 19.4125 7.42063C18.4913 6.8925 17.9637 4.75312 17.3844 2.73187C16.6119 2.58375 15.8162 2.5 15 2.5C14.1838 2.5 13.3881 2.58375 12.615 2.73C12.0363 4.75125 11.5081 6.89063 10.5875 7.41813C10.3206 7.57125 9.95937 7.63375 9.5325 7.63375C8.44062 7.63375 6.91813 7.2225 5.44125 6.85687C4.43813 8.01312 3.65062 9.35125 3.125 10.8162C4.59 12.32 6.17 13.8725 6.17 15C6.17 16.1275 4.59063 17.68 3.125 19.1838C3.65062 20.6481 4.43813 21.9869 5.44125 23.1419ZM4.58562 10.5231C4.93812 9.71812 5.38125 8.96125 5.91 8.2625C7.18875 8.58063 8.485 8.88375 9.53188 8.88375C10.2125 8.88375 10.7606 8.75875 11.2087 8.5025C12.4469 7.7925 12.9956 5.97125 13.5994 3.83938C14.0731 3.78 14.5419 3.75 15 3.75C15.4581 3.75 15.9269 3.78 16.4006 3.83938C17.0044 5.97187 17.5531 7.79312 18.7913 8.50312C19.2388 8.76 19.7875 8.88438 20.4681 8.88438C21.515 8.88438 22.8112 8.58063 24.09 8.26312C24.6187 8.96187 25.0619 9.71812 25.4144 10.5237C23.9156 12.065 22.5806 13.5312 22.5806 15.0006C22.5806 16.4694 23.9162 17.9362 25.4144 19.4775C25.0619 20.2831 24.6187 21.0394 24.09 21.7381C22.8112 21.42 21.515 21.1162 20.4681 21.1162C19.7875 21.1162 19.2394 21.2412 18.7913 21.4975C17.5531 22.2075 17.0044 24.0288 16.4006 26.1613C15.9269 26.22 15.4581 26.25 15 26.25C14.5419 26.25 14.0731 26.22 13.5994 26.1606C12.9956 24.0281 12.4462 22.2069 11.2087 21.4969C10.7613 21.24 10.2125 21.1156 9.53188 21.1156C8.485 21.1156 7.18875 21.4194 5.91 21.7369C5.38125 21.0381 4.93812 20.2819 4.58562 19.4762C6.08437 17.935 7.41938 16.4688 7.41938 15C7.42 13.5306 6.08437 12.0644 4.58562 10.5231Z" fill="black"/>
</g>
<defs>
<clipPath id="clip0_1_301">
<rect width="30" height="30" fill="white"/>
</clipPath>
</defs>
</svg>
