<?xml version="1.0" encoding="utf-8"?>
<!-- Generator: Adobe Illustrator 24.0.1, SVG Export Plug-In . SVG Version: 6.00 Build 0)  -->
<svg version="1.1" id="Layer_1" xmlns="http://www.w3.org/2000/svg" xmlns:xlink="http://www.w3.org/1999/xlink" x="0px" y="0px"
	 viewBox="0 0 23.8 23.8" style="enable-background:new 0 0 23.8 23.8;" xml:space="preserve">
<style type="text/css">
	.st0{font-family:'AlumniSansCollegiateOne-Italic';}
	.st1{font-size:16.2856px;}
</style>
<path d="M0.6,13.3l2.8,2.8l1.4-1.4L2,11.9l2.8-2.8L3.4,7.7l-2.8,2.8C-0.2,11.3-0.2,12.5,0.6,13.3z M9.1,19l-1.4,1.4l2.8,2.8
	c0.8,0.8,2.1,0.8,2.8,0l2.8-2.8L14.7,19l-2.8,2.8L9.1,19z M21.8,11.9L19,14.7l1.4,1.4l2.8-2.8c0.8-0.8,0.8-2.1,0-2.8l-2.8-2.8
	L19,9.1L21.8,11.9z M10.5,0.6L7.7,3.4l1.4,1.4L11.9,2l2.8,2.8l1.4-1.4l-2.8-2.8C12.5-0.2,11.3-0.2,10.5,0.6z"/>
<text transform="matrix(1.0815 0 0 1 9.7218 17.0621)" class="st0 st1">J</text>
</svg>
