<?xml version="1.0" encoding="utf-8"?>
<!-- Generator: Adobe Illustrator 25.2.3, SVG Export Plug-In . SVG Version: 6.00 Build 0)  -->
<svg version="1.1" id="Layer_1" xmlns="http://www.w3.org/2000/svg" xmlns:xlink="http://www.w3.org/1999/xlink" x="0px" y="0px"
	 viewBox="0 0 20 20" style="enable-background:new 0 0 20 20;" xml:space="preserve">
<style type="text/css">
	.st0{fill:none;}
</style>
<g>
	<path class="st0" d="M-2-2v24h24V-2H-2z M14,9c0,0.3,0,0.6-0.1,0.9c0,0.7-0.1,1.3-0.4,1.9c-0.2,0.6-0.5,1.2-1,1.6l-0.1,0.1
		c-0.8,0.9-2,1.5-3.6,1.5c-2.3,0-3.7-1.2-4.4-2.8C4.2,12,4,11.7,3.9,11.4c-0.1-0.4-0.1-0.9-0.2-1.3c0-0.5,0.1-1,0.2-1.4
		C4,7.8,4.2,7,4.6,6.3C4.8,6.1,4.9,6,5,5.8s0.2-0.3,0.4-0.5l0,0c0,0,0,0,0.1,0c0.8-0.9,2-1.4,3.5-1.4c0.4,0,0.7,0,1,0.1
		c1,0.2,1.9,0.7,2.5,1.3l0,0l0,0l0.1,0.1c0.4,0.4,0.7,0.9,0.9,1.4c0.3,0.7,0.5,1.3,0.5,2V9z"/>
	<path d="M20,10c0,5.5-4.5,10-10,10S0,15.5,0,10c0-1.2,0.2-2.3,0.6-3.4l1.9,0.7C2.2,8.1,2,9.1,2,10c0,4.4,3.6,8,8,8s8-3.6,8-8
		s-3.6-8-8-8C9.1,2,8.1,2.2,7.3,2.5L6.6,0.6C7.7,0.2,8.8,0,10,0C15.5,0,20,4.5,20,10z"/>
</g>
<polygon points="4.4,6.2 4.5,3.9 6.1,2.3 3.8,2.2 2.2,0.6 2.1,2.9 0.5,4.4 2.8,4.5 "/>
</svg>
