<?xml version="1.0" encoding="utf-8"?>
<!-- Generator: Adobe Illustrator 24.0.1, SVG Export Plug-In . SVG Version: 6.00 Build 0)  -->
<svg version="1.1" id="Layer_1" xmlns="http://www.w3.org/2000/svg" xmlns:xlink="http://www.w3.org/1999/xlink" x="0px" y="0px"
	 viewBox="0 0 50 15.3" style="enable-background:new 0 0 50 15.3;" xml:space="preserve">
<rect x="-10.2" y="-39.1" width="121.8" height="32.4"/>
<path d="M0.5,0c0.3,0,49.1,0,49.1,0l0.3,1.4L50,2.2l-0.1,0.9l-0.2,0.8l-0.1,1l0.2,1.2L50,6.5l-0.1,1.1l-0.1,1.2l-0.2,0.9l-0.1,1.1
	l0,1.2l0.1,0.6l0.1,0.5l0.3,2.2H0.7l-0.1-1.9L0.2,12l-0.2-0.8l0.1-0.8l0.3-1.8L0.2,7.7l0.2-0.6l0.1-1.4L0.4,4.3L0,3.3l0.2-1.4l0-0.8
	C0.2,1.1,0.2,0,0.5,0z"/>
<path d="M55,9.8"/>
</svg>
